<svg id="Layer_1" data-name="Layer 1" xmlns="http://www.w3.org/2000/svg" viewBox="0 0 555.25 92.13"><defs><style>.cls-1{fill:transparent;}</style></defs><title>Stars</title><path fill="#ffb802" d="M154.44,100.78c2.61-9.49,4.91-19.09,8-28.44,1.79-5.49,1.15-8.88-4.08-12.14C151,55.62,144.21,50,135.85,43.91c11.33-.78,21.19-1.7,31.06-2,4.09-.13,5.88-1.6,7.18-5.38,3.08-8.94,6.69-17.7,10.58-27.81,3.9,10.18,7.51,19.18,10.76,28.31,1.17,3.3,2.74,4.69,6.41,4.83,10,0.37,20,1.25,31.68,2C225.28,49.93,218.46,55.55,211,60.2c-5.2,3.25-5.92,6.61-4.11,12.13,3.06,9.34,5.32,18.95,7.91,28.44h-1.14l-29-22-29.1,22h-1.14Z" transform="translate(-21.46 -8.66)"/><path fill="#ffb802" d="M383.45,100.78c2.77-10.23,5.32-20.53,8.41-30.67,1.19-3.9.64-6.15-2.8-8.51-7.8-5.33-15.3-11.11-24.26-17.69,11.35-.78,21.21-1.72,31.08-2,4.14-.13,5.94-1.63,7.23-5.38,3.08-8.94,6.7-17.7,10.58-27.81,3.91,10.2,7.52,19.2,10.78,28.33,1.16,3.26,2.71,4.65,6.35,4.8,10.06,0.39,20.11,1.27,31.73,2-8.25,6.06-15.07,11.69-22.49,16.34-5.2,3.25-5.91,6.62-4.11,12.13,3.07,9.35,5.33,19,7.92,28.46h-1.14L413.64,78.78l-29.06,22h-1.13Z" transform="translate(-21.46 -8.66)"/><path fill="#ffb802" d="M269.44,100.78c2.61-9.49,4.91-19.09,8-28.44,1.79-5.49,1.15-8.88-4.08-12.14C266,55.62,259.21,50,250.85,43.91c11.33-.78,21.19-1.7,31.06-2,4.09-.13,5.88-1.6,7.18-5.38,3.08-8.94,6.69-17.7,10.58-27.81,3.9,10.18,7.51,19.18,10.76,28.31,1.17,3.3,2.74,4.69,6.41,4.83,10,0.37,20,1.25,31.68,2C340.28,49.93,333.46,55.55,326,60.2c-5.2,3.25-5.92,6.61-4.11,12.13,3.06,9.34,5.32,18.95,7.91,28.44h-1.14l-29-22-29.1,22h-1.14Z" transform="translate(-21.46 -8.66)"/><path fill="#ffb802" d="M498.45,100.78c2.77-10.23,5.32-20.53,8.41-30.67,1.19-3.9.64-6.15-2.8-8.51-7.8-5.33-15.3-11.11-24.26-17.69,11.35-.78,21.21-1.72,31.08-2,4.14-.13,5.94-1.63,7.23-5.38,3.08-8.94,6.7-17.7,10.58-27.81,3.91,10.2,7.52,19.2,10.78,28.33,1.16,3.26,2.71,4.65,6.35,4.8,10.06,0.39,20.11,1.27,31.73,2-8.25,6.06-15.07,11.69-22.49,16.34-5.2,3.25-5.91,6.62-4.11,12.13,3.07,9.35,5.33,19,7.92,28.46h-1.14L528.64,78.78l-29.06,22h-1.13Z" transform="translate(-21.46 -8.66)"/><path fill="#ffb802" d="M39.45,100.78c2.77-10.23,5.32-20.53,8.41-30.67,1.19-3.9.64-6.15-2.8-8.51C37.26,56.27,29.76,50.49,20.8,43.91c11.35-.78,21.21-1.72,31.08-2,4.14-.13,5.94-1.63,7.23-5.38,3.08-8.94,6.7-17.7,10.58-27.81,3.91,10.2,7.52,19.2,10.78,28.33,1.16,3.26,2.71,4.65,6.35,4.8,10.06,0.39,20.11,1.27,31.73,2C110.3,49.91,103.48,55.54,96.06,60.19c-5.2,3.25-5.91,6.62-4.11,12.13,3.07,9.35,5.33,19,7.92,28.46H98.73L69.64,78.78l-29.06,22H39.45Z" transform="translate(-21.46 -8.66)"/></svg>